<svg width="23" height="22" viewBox="0 0 23 22" fill="none" xmlns="http://www.w3.org/2000/svg">
<path d="M21.4519 5.05095C21.0439 5.45895 20.648 5.85495 20.636 6.25095C20.6 6.63495 21.0079 7.03095 21.392 7.40295C21.9679 8.00295 22.5319 8.54295 22.5079 9.13095C22.4839 9.71895 21.8719 10.331 21.2599 10.931L16.3039 15.899L14.6 14.195L19.6999 9.10695L18.548 7.95495L16.844 9.64695L12.344 5.14695L16.9519 0.550951C17.4199 0.0829511 18.2 0.0829511 18.644 0.550951L21.4519 3.35895C21.9199 3.80295 21.9199 4.58295 21.4519 5.05095ZM0.199951 17.303L11.672 5.81895L16.1719 10.319L4.69995 21.803H0.199951V17.303Z" fill="white"/>
</svg>
